<?xml version="1.0" encoding="iso-8859-1"?>
<!-- Generator: Adobe Illustrator 19.0.0, SVG Export Plug-In . SVG Version: 6.00 Build 0)  -->
<svg version="1.1" id="Capa_1" xmlns="http://www.w3.org/2000/svg" xmlns:xlink="http://www.w3.org/1999/xlink" x="0px" y="0px"
	 viewBox="0 0 512 512" style="enable-background:new 0 0 512 512;" xml:space="preserve">
<g>
	<g>
		<g>
			<path d="M275.938,318.145c75.244-12.632,129.396-94.668,129.396-168.811C405.333,66.99,338.344,0,256,0
				S106.667,66.99,106.667,149.333c0,74.143,54.152,156.18,129.396,168.811l-20.594,27.46c-2.427,3.229-2.813,7.552-1.01,11.167
				c1.813,3.615,5.5,5.896,9.542,5.896h20.535c-1.46,9.069-4.767,14.905-8.462,21.375C230.417,393.948,224,405.167,224,426.667
				s6.417,32.719,12.073,42.625c4.969,8.698,9.26,16.208,9.26,32.042c0,5.896,4.771,10.667,10.667,10.667
				s10.667-4.771,10.667-10.667c0-21.5-6.417-32.719-12.073-42.625c-4.969-8.698-9.26-16.208-9.26-32.042s4.292-23.344,9.26-32.042
				c4.604-8.064,9.521-17.316,11.262-31.958H288c4.042,0,7.729-2.281,9.542-5.896c1.802-3.615,1.417-7.938-1.01-11.167
				L275.938,318.145z M218.083,72.885c-26.156,13.042-43.688,38.063-46.885,66.958c-0.604,5.458-5.229,9.49-10.594,9.49
				c-0.385,0-0.792-0.021-1.188-0.063c-5.854-0.656-10.073-5.927-9.427-11.781c4.01-36.125,25.906-67.417,58.573-83.688
				c5.323-2.635,11.677-0.479,14.313,4.781C225.5,63.854,223.354,70.26,218.083,72.885z"/>
		</g>
	</g>
</g>
</svg>
